<svg viewBox="0 0 40 40" xmlns="http://www.w3.org/2000/svg"><path d="M14.71 21.5a5.69 5.69 0 1 1 5.69 5.69 5.68 5.68 0 0 1-5.69-5.69" fill="#ffffff" class="fill-000000"></path><path d="m15.83 18.12.28.15a15.74 15.74 0 0 1 1.35 1.09c.19.19.41.5.58.69a2.37 2.37 0 0 1 .64 1.12 8 8 0 0 0 .49 1.89 1.24 1.24 0 0 0 .22.27c.17.22.25.57.57.76l.27.16c.08.08-.06.34-.52.28.24.12.21.38-.13.4a1.47 1.47 0 0 1-1.16-.46c-.05 0-.18.14-.41.22s-.56 0-.81 0a7.19 7.19 0 0 1-.8.2c-.44 0-.49-.29-.49-.55v-.12a3.12 3.12 0 0 1-.21.44.62.62 0 0 1-.31.35l-.47.06c-.37.16-.73.28-1.12.41a.77.77 0 0 1-.63-.13 1.25 1.25 0 0 1-.28-.37h-.26a.25.25 0 0 1-.16-.12l-.33-.54a.36.36 0 0 1 0-.25.35.35 0 0 1 .33-.18 2 2 0 0 1 .73 0c.1-.11.27-.1.41-.13a1 1 0 0 0-.22-.2 3.22 3.22 0 0 1-1.31 0c-.38-.09-.7.14-1.08.08l-.12.25c-.18.19-.19.51-.46.64a2.19 2.19 0 0 0-.5.27 1.58 1.58 0 0 1-1 0 .65.65 0 0 0-.34 0c-.1.07-.22.19-.34.28s-.35.24-.56.25-.23-.07-.35 0-.22.42-.45.5a1.55 1.55 0 0 1-.77 0c-.07 0-.12.09-.2.08a1.76 1.76 0 0 1-.47-.18.33.33 0 0 1-.09-.19c0-.11.09-.19.13-.28a1.07 1.07 0 0 1 .06-.35.68.68 0 0 1 .4-.34.35.35 0 0 1 .19-.28c.19-.1.39-.34.64-.21l.27.22c.23-.1.17-.34.29-.53s.13-.28.28-.28h.32a.85.85 0 0 0 .42-.22v-.08a2.17 2.17 0 0 1-.2-1 2.88 2.88 0 0 1-.83 0 1.31 1.31 0 0 1-1-.8 1.33 1.33 0 0 1 .18-1.29 4.89 4.89 0 0 1 .73-.71h-.28a1.11 1.11 0 0 1-.85-.78.91.91 0 0 1 .12-.69c0-.05.09-.09.16-.06s.25.18.43.26l.1.06c.49.17 1.13.17 1.32.77A1.06 1.06 0 0 1 7.72 20a1.92 1.92 0 0 0-.66.7.51.51 0 0 0 .14.56.68.68 0 0 0 .71.09 5.88 5.88 0 0 0 1.16-.72 2 2 0 0 1 1.24-.38 1.38 1.38 0 0 0 .54-.27 2.16 2.16 0 0 1 .93-.57 3.93 3.93 0 0 1 .48-.06c.13-.06.22-.22.32-.3.49-.42 1.14-.41 1.65-.74a1.52 1.52 0 0 1 1-.36 1.69 1.69 0 0 1 .48.11l.12.05Zm.49 5a7 7 0 0 0-.75.12 1.19 1.19 0 0 0 .29.6c.09-.34.37-.47.46-.72M24.59 23.19c.15.23.24.45.37.68a4.21 4.21 0 0 1 .37-.63 4.29 4.29 0 0 1-.74 0m.31 1.09s0 .06-.1.06a.52.52 0 0 1-.47.6c-.25 0-.66-.23-.9-.25s-.71.18-1-.22a1.31 1.31 0 0 1-1.12.53c-.2 0-.42-.12-.11-.38-.68.22-.68-.23-.56-.32a3.61 3.61 0 0 0 .41-.36c.94-1 .59-2.69 1.62-3.82a7.89 7.89 0 0 1 1.52-1.26c.28-.19.56-.47.83-.66a1.51 1.51 0 0 1 .49-.28 1.46 1.46 0 0 1 1 .27 1.48 1.48 0 0 1 .38.37c.09.08.22.08.34.13a2.59 2.59 0 0 1 .91.36c.19.12.36.33.59.36a2 2 0 0 1 .78.28 2.49 2.49 0 0 0 .91.48 4 4 0 0 1 1.85.87 1.38 1.38 0 0 0 1.1.28.42.42 0 0 0 .24-.25.88.88 0 0 0-.29-.66c-.34-.4-.93-.74-.86-1.31a1.31 1.31 0 0 1 .94-.79c.21-.08.46-.05.64-.23s.13-.26.28-.19a.45.45 0 0 1 .14.36 1 1 0 0 1-.41 1 1.52 1.52 0 0 1-.57.21 2.86 2.86 0 0 1 .79.91 1.65 1.65 0 0 1 .18.62 1.28 1.28 0 0 1-.66 1 1.52 1.52 0 0 1-.74.16h-.28a1.75 1.75 0 0 1 0 .72 3.42 3.42 0 0 0-.09.4.25.25 0 0 0 .22.08c.2 0 .43 0 .53.19s.14.41.21.6c0 0 0 .1.09.09s.26-.28.45-.24l.53.38a.37.37 0 0 1 .08.18.61.61 0 0 1 .38.34v.34c0 .11.16.26.08.41h-.06l-.56.18a.19.19 0 0 1-.13-.07c-.3 0-.65.07-.89-.14a1.54 1.54 0 0 1-.25-.31.61.61 0 0 1-.6 0 1.9 1.9 0 0 0-1.23-.54 1.32 1.32 0 0 1-.71 0 2.11 2.11 0 0 1-.6-.44 1.64 1.64 0 0 1-.32-.85 4.19 4.19 0 0 1-1 0 2.8 2.8 0 0 0-.77.08 4.43 4.43 0 0 1-1 .08l-.16.11a.42.42 0 0 1 .21.08l.05.06a7.45 7.45 0 0 1 .83 0 .23.23 0 0 1 .14.13.24.24 0 0 1 0 .22 2.55 2.55 0 0 1-.38.53c0 .06-.18 0-.19.09a.78.78 0 0 1-.56.55.8.8 0 0 1-.31 0c-.31-.11-.62-.2-.93-.28-.1 0-.19-.14-.28-.19s-.32 0-.41-.08a.59.59 0 0 1-.1-.17 1.6 1.6 0 0 1-.22-.58" fill-rule="evenodd" fill="#ffffff" class="fill-000000"></path><path d="M15.68 20a1.27 1.27 0 0 1 0 .75 4.34 4.34 0 0 0-.16-.62c0-.12-.19-.22-.13-.35a.14.14 0 0 1 .13 0 1 1 0 0 1 .17.24M18 22a.73.73 0 0 1 .22.65s0 .13-.09.15a.05.05 0 0 1-.06 0 .92.92 0 0 0-.07-.4c-.09-.09-.19-.26-.34-.26s-.17.14-.23.22.06-.27.1-.39.08-.33.27-.26.2.29.2.29m-.31 1.75c0 .09 0 .22-.08.28a.59.59 0 0 1-.3 0s-.06 0-.05-.06a.52.52 0 0 1 .32-.31.1.1 0 0 1 .11.06M7 18.42a1.88 1.88 0 0 1 1 .37.61.61 0 0 1 0 .66c-.2.35-.62.53-.87.83a.85.85 0 0 0-.26.86.72.72 0 0 0 .65.48 1.94 1.94 0 0 0 1.11-.41 3.91 3.91 0 0 1 1.08-.68c.26-.08.56 0 .82-.14a1.74 1.74 0 0 0 .72-.5 1.21 1.21 0 0 1 .87-.31c.29 0 .45-.22.66-.4a3.69 3.69 0 0 1 1.22-.51 6.52 6.52 0 0 0 .77-.43 1.22 1.22 0 0 1 .84 0 2.55 2.55 0 0 1 .48.27l1.19 1a.17.17 0 0 0 .09.08 11.84 11.84 0 0 1 1 1.27 2.13 2.13 0 0 1 .18.5 7 7 0 0 0 .45 1.82c.06.09.18.16.24.25.19.26.31.6.61.78l.18.09v.06a.9.9 0 0 1-.84-.43 1.08 1.08 0 0 0-.54-.59c0 .08.12.14.15.22a1.67 1.67 0 0 1 .23.51c.06.19.27.32.43.43l.23.11s.05.06 0 .09a1.33 1.33 0 0 1-1-.41.32.32 0 0 0-.25-.14 1 1 0 0 1-.59.33 1.29 1.29 0 0 0-.73 0 2 2 0 0 1-.63.16.29.29 0 0 1-.27-.14c0-.14-.09-.28 0-.42l.14-.22v-.06s-.36.2-.36.1.23-.37.38-.51a.91.91 0 0 1 .24-.49.05.05 0 0 0-.05 0 3.66 3.66 0 0 1-.59.07.71.71 0 0 1-.55.09.07.07 0 0 1 0-.1 1.25 1.25 0 0 0 .22-1s0-.05 0-.05l-.05.05a1.92 1.92 0 0 1-.32.85 1 1 0 0 1-.51.17.13.13 0 0 0-.09.11.79.79 0 0 0 .11.29l.39.71a2.15 2.15 0 0 1-.12.56s0 0 .07 0a1.08 1.08 0 0 0 .28-.46.34.34 0 0 0 0-.22l-.4-.79c0-.05.09-.05.13-.06a.9.9 0 0 1 .27.07 2.49 2.49 0 0 0 .35.69c0 .13.07.31 0 .41a3.06 3.06 0 0 1-.3.49.57.57 0 0 1-.39.1 6.12 6.12 0 0 1-1.1.43.52.52 0 0 1-.49-.09 1.49 1.49 0 0 1-.28-.38c-.1-.14-.26 0-.38-.09s-.2-.33-.29-.5 0-.09 0-.12a2.79 2.79 0 0 1 .43-.06.52.52 0 0 1 .37.1c.17.21.25.49.51.62a1 1 0 0 0 .56-.13c.1-.06.22-.15.22-.28a.85.85 0 0 0-.41-.62 1.92 1.92 0 0 1-.62-.48 1.44 1.44 0 0 1-.15-.37s-.07 0-.08 0 0 .2 0 .29a.29.29 0 0 1 0 .18c-.14.1-.31 0-.47.06a6.43 6.43 0 0 0-1-.12c-.33 0-.77.23-1-.09a1.85 1.85 0 0 1 0-1 .06.06 0 0 0-.06 0h-.08c-.08.3-.1.64-.17 1a1.52 1.52 0 0 1-.61.72 2.26 2.26 0 0 1-.85.2 1.66 1.66 0 0 0-1.42.6s-.08.09-.06.15a.07.07 0 0 0 .07 0A1.7 1.7 0 0 1 9 24.28a1.6 1.6 0 0 0 1.39-.54 2.27 2.27 0 0 0 .22-.32c.06 0 .11.07.15.1s-.12.26-.18.39a.89.89 0 0 1-.29.42 1.83 1.83 0 0 0-.48.25 1 1 0 0 1-.56.06 1.36 1.36 0 0 0-.8 0c-.11.07-.22.2-.33.27s-.31.21-.5.2-.3-.12-.42 0-.17.36-.36.45-.46 0-.68 0a1 1 0 0 1 .21-.56.5.5 0 0 0 .23-.09 1 1 0 0 0 .21-.28 1.33 1.33 0 0 0 .53-.41 1.6 1.6 0 0 1 .23-.54H8.04a2.4 2.4 0 0 0 .46-.27.21.21 0 0 0 0-.19 3 3 0 0 1-.17-.53 6.16 6.16 0 0 1 0-.64s0-.06-.06-.06a2 2 0 0 1-.81.08 1.15 1.15 0 0 1-1-.7 1.14 1.14 0 0 1 .15-1.1 5 5 0 0 1 .82-.77s0-.09.06-.13-.06-.1-.11-.13-.38 0-.55-.06a.89.89 0 0 1-.59-.72.5.5 0 0 1 .13-.46 1.81 1.81 0 0 0 .63.44M6.12 25a4.55 4.55 0 0 0-.18.59 1.2 1.2 0 0 1-.35-.1s0-.06 0-.09.09-.27.12-.43.1-.16.19-.2.16.11.22.19m.64-.62a.88.88 0 0 1-.33.41.28.28 0 0 1-.2 0s-.08-.06-.08-.12v-.16a2.8 2.8 0 0 0 .35-.25s.09 0 .11 0 .1.07.11.13m7.37-.06c0 .06.1.13 0 .19a.6.6 0 0 1-.41.14c-.12-.09-.1-.25-.21-.37s-.16-.09-.13-.18h.05A2.58 2.58 0 0 0 14 24c.16 0 .12.18.18.28M23.42 21.92a1.72 1.72 0 0 1 .22.38.1.1 0 0 1 0 .09.06.06 0 0 1-.09 0c-.1 0-.09-.2-.22-.18s-.14.07-.22.12-.31.23-.34.41 0 .16-.07.19a.06.06 0 0 1-.07 0 .77.77 0 0 1 .22-.62 3.23 3.23 0 0 0 .41-.49.18.18 0 0 1 .18.11m0 1.95c0 .06.09.13.05.21s-.16 0-.24 0-.11-.16-.11-.26a.12.12 0 0 1 0-.08.33.33 0 0 1 .28.12m2.21-4.5v.17a3 3 0 0 0-.6.63.77.77 0 0 0-.14.25.6.6 0 0 1 0-.37 1.73 1.73 0 0 1 .59-.73s.13 0 .16 0m.84-.94c.16.11.22.33.41.37a4.45 4.45 0 0 1 .94.29 3.21 3.21 0 0 1 .59.42 4.92 4.92 0 0 0 .58.14 3 3 0 0 1 .75.44c.33.25.78.22 1.15.39a12 12 0 0 1 1.6.91 1.15 1.15 0 0 0 1 0 .52.52 0 0 0 .26-.56c-.1-.6-.76-.91-1.07-1.41a.65.65 0 0 1-.07-.41 1.11 1.11 0 0 1 .69-.56c.2-.1.47-.07.66-.19a.63.63 0 0 0 .17-.15s0 .05.06.08a.86.86 0 0 1-.31.92.93.93 0 0 1-.39.15c-.12 0-.36 0-.34.16s.12.16.19.24a2 2 0 0 1 .84 1.3 1.07 1.07 0 0 1-.62.95 1.52 1.52 0 0 1-.87.07c-.07 0-.19-.09-.25 0s.06.21.06.31a1.49 1.49 0 0 1 0 .63c0 .15-.17.33 0 .47s.4.15.62.18.16.15.19.24a2.22 2.22 0 0 0 .09.33c0 .22.25.31.36.46s.28.44.53.43a1.55 1.55 0 0 1 .16.54c-.2 0-.48.06-.63-.09s-.23-.44-.5-.35a.41.41 0 0 1-.41.06 1.91 1.91 0 0 1-.34-.24 1.6 1.6 0 0 0-1.28-.29c-.26.07-.47-.12-.67-.24s-.35-.41-.41-.66v-.31a.09.09 0 0 1 .06-.07h.05a1.64 1.64 0 0 0 .86.91c.37.15.71 0 1.11 0a2 2 0 0 1 .94.5s0 0 .05 0a1.51 1.51 0 0 0-1.35-.61 1.11 1.11 0 0 1-1.16-.44 1.71 1.71 0 0 1-.29-.7 4.72 4.72 0 0 0-.21-.88s-.06-.05-.09 0a1.75 1.75 0 0 1 0 .91.55.55 0 0 1-.53.34H29c-.53 0-1 .19-1.54.15 0-.14.13-.27.09-.41s-.06 0-.09 0-.09.19-.15.28a.94.94 0 0 1-.56.41 3.48 3.48 0 0 0-.44.42.26.26 0 0 0 0 .19c.11.27.42.3.65.37a.26.26 0 0 0 .28-.13c.1-.16.12-.43.35-.46H28a.28.28 0 0 1 .1.09v.08c-.12.13-.17.32-.31.41s-.19 0-.25.07a.58.58 0 0 1-.25.46.52.52 0 0 1-.47 0c-.28-.1-.56-.16-.84-.25-.12 0-.16-.18-.3-.21s-.25.06-.35 0a1.46 1.46 0 0 1-.12-.37.89.89 0 0 1-.08-.29.32.32 0 0 1 0-.22l.38-.69c0-.05.06-.09.1-.1a.79.79 0 0 1 .28.1l-.4.6a.66.66 0 0 0 .09.58 1.15 1.15 0 0 1 0-.37 1.2 1.2 0 0 1 .16-.32l.31-.46a.27.27 0 0 0 0-.26c-.13-.14-.32-.18-.44-.36a2.06 2.06 0 0 1-.31-1.16.12.12 0 0 0-.07-.09s-.06 0-.07.05a1.7 1.7 0 0 0 0 .87 2.18 2.18 0 0 0 .22.55.1.1 0 0 1 0 .09 2.45 2.45 0 0 1-.61 0 1.69 1.69 0 0 1-.67-.41s0 0-.06 0c.06.29.38.47.48.74s.28.38.33.61a.11.11 0 0 1-.06.09h-.22c-.07 0 .07.26 0 .38s-.17.25-.31.25-.53-.21-.79-.28a2.6 2.6 0 0 0-.56 0c-.18 0-.29-.19-.43-.28a.09.09 0 0 0-.11 0 1.54 1.54 0 0 1-1.06.61.06.06 0 0 1-.05-.06 1.65 1.65 0 0 0 .52-.6 4.88 4.88 0 0 1 .31-.55s0 0 0-.06a4.44 4.44 0 0 0-.54.71.7.7 0 0 1-.65.2s0-.06 0-.08c.92-.56 1-1.56 1.27-2.47a3.71 3.71 0 0 1 .78-1.71 24 24 0 0 1 2.36-1.91.66.66 0 0 1 .39-.21 1.31 1.31 0 0 1 .94.34m8.39 6.5c.07.1 0 .26.07.38s.13.16.08.25l-.33.1c-.06 0 0-.07-.06-.1a2.83 2.83 0 0 0-.13-.5c0-.1.09-.18.16-.23s.14.05.21.1m-.75-.66a1.56 1.56 0 0 1 .37.31.25.25 0 0 1-.06.16.29.29 0 0 1-.18.07.21.21 0 0 1-.17-.1 1.26 1.26 0 0 1-.21-.34c0-.07.15-.19.25-.1m-7.08-.12a1.39 1.39 0 0 1-.12.41c-.05.09-.18.06-.27.05s-.23-.05-.25-.18a.5.5 0 0 1 .11-.32h.42c.13 0 .11 0 .11.06" fill="#363a3f" fill-rule="evenodd" class="fill-ffffff"></path></svg>